<mxfile host="app.diagrams.net" modified="2024-04-15T10:10:12.950Z" agent="Mozilla/5.0 (Windows NT 10.0; Win64; x64) AppleWebKit/537.36 (KHTML, like Gecko) Chrome/123.0.0.0 Safari/537.36" etag="uNlNmuq2f40WoJFeY4r-" version="24.2.3" type="device">
  <diagram name="Pagina-1" id="krV1NACgh1wJRoZUSMBv">
    <mxGraphModel dx="1033" dy="373" grid="1" gridSize="10" guides="1" tooltips="1" connect="1" arrows="1" fold="1" page="1" pageScale="1" pageWidth="1500" pageHeight="500" math="1" shadow="0">
      <root>
        <mxCell id="0" />
        <mxCell id="1" parent="0" />
        <mxCell id="Mc97eo4bKEqJ45BOUB6S-1" value="" style="rounded=0;whiteSpace=wrap;html=1;fillColor=#f5f5f5;fontColor=#333333;strokeColor=default;strokeWidth=2;" vertex="1" parent="1">
          <mxGeometry x="690" y="310" width="20" height="20" as="geometry" />
        </mxCell>
        <mxCell id="Mc97eo4bKEqJ45BOUB6S-2" value="" style="rounded=0;whiteSpace=wrap;html=1;fillColor=#f5f5f5;fontColor=#333333;strokeColor=default;strokeWidth=2;opacity=10;" vertex="1" parent="1">
          <mxGeometry x="710" y="310" width="20" height="20" as="geometry" />
        </mxCell>
        <mxCell id="Mc97eo4bKEqJ45BOUB6S-3" value="" style="rounded=0;whiteSpace=wrap;html=1;fillColor=#f5f5f5;fontColor=#333333;strokeColor=default;strokeWidth=2;opacity=10;" vertex="1" parent="1">
          <mxGeometry x="730" y="310" width="20" height="20" as="geometry" />
        </mxCell>
        <mxCell id="Mc97eo4bKEqJ45BOUB6S-5" value="" style="rounded=0;whiteSpace=wrap;html=1;fillColor=#f5f5f5;fontColor=#333333;strokeColor=default;strokeWidth=2;opacity=10;" vertex="1" parent="1">
          <mxGeometry x="750" y="310" width="20" height="20" as="geometry" />
        </mxCell>
        <mxCell id="Mc97eo4bKEqJ45BOUB6S-6" value="" style="rounded=0;whiteSpace=wrap;html=1;fillColor=#f5f5f5;fontColor=#333333;strokeColor=default;strokeWidth=2;" vertex="1" parent="1">
          <mxGeometry x="690" y="330" width="20" height="20" as="geometry" />
        </mxCell>
        <mxCell id="Mc97eo4bKEqJ45BOUB6S-7" value="" style="rounded=0;whiteSpace=wrap;html=1;fillColor=#f5f5f5;fontColor=#333333;strokeColor=default;strokeWidth=2;" vertex="1" parent="1">
          <mxGeometry x="710" y="330" width="20" height="20" as="geometry" />
        </mxCell>
        <mxCell id="Mc97eo4bKEqJ45BOUB6S-8" value="" style="rounded=0;whiteSpace=wrap;html=1;fillColor=#f5f5f5;fontColor=#333333;strokeColor=default;strokeWidth=2;opacity=10;" vertex="1" parent="1">
          <mxGeometry x="730" y="330" width="20" height="20" as="geometry" />
        </mxCell>
        <mxCell id="Mc97eo4bKEqJ45BOUB6S-9" value="" style="rounded=0;whiteSpace=wrap;html=1;fillColor=#f5f5f5;fontColor=#333333;strokeColor=default;strokeWidth=2;opacity=10;" vertex="1" parent="1">
          <mxGeometry x="750" y="330" width="20" height="20" as="geometry" />
        </mxCell>
        <mxCell id="Mc97eo4bKEqJ45BOUB6S-10" value="" style="rounded=0;whiteSpace=wrap;html=1;fillColor=#f5f5f5;fontColor=#333333;strokeColor=default;strokeWidth=2;" vertex="1" parent="1">
          <mxGeometry x="690" y="350" width="20" height="20" as="geometry" />
        </mxCell>
        <mxCell id="Mc97eo4bKEqJ45BOUB6S-11" value="" style="rounded=0;whiteSpace=wrap;html=1;fillColor=#f5f5f5;fontColor=#333333;strokeColor=default;strokeWidth=2;" vertex="1" parent="1">
          <mxGeometry x="710" y="350" width="20" height="20" as="geometry" />
        </mxCell>
        <mxCell id="Mc97eo4bKEqJ45BOUB6S-12" value="" style="rounded=0;whiteSpace=wrap;html=1;fillColor=#f5f5f5;fontColor=#333333;strokeColor=default;strokeWidth=2;" vertex="1" parent="1">
          <mxGeometry x="730" y="350" width="20" height="20" as="geometry" />
        </mxCell>
        <mxCell id="Mc97eo4bKEqJ45BOUB6S-13" value="" style="rounded=0;whiteSpace=wrap;html=1;fillColor=#f5f5f5;fontColor=#333333;strokeColor=default;strokeWidth=2;opacity=10;" vertex="1" parent="1">
          <mxGeometry x="750" y="350" width="20" height="20" as="geometry" />
        </mxCell>
        <mxCell id="Mc97eo4bKEqJ45BOUB6S-14" value="" style="rounded=0;whiteSpace=wrap;html=1;fillColor=#f8cecc;strokeColor=default;strokeWidth=2;" vertex="1" parent="1">
          <mxGeometry x="690" y="370" width="20" height="20" as="geometry" />
        </mxCell>
        <mxCell id="Mc97eo4bKEqJ45BOUB6S-15" value="" style="rounded=0;whiteSpace=wrap;html=1;fillColor=#f8cecc;strokeColor=default;strokeWidth=2;" vertex="1" parent="1">
          <mxGeometry x="710" y="370" width="20" height="20" as="geometry" />
        </mxCell>
        <mxCell id="Mc97eo4bKEqJ45BOUB6S-16" value="" style="rounded=0;whiteSpace=wrap;html=1;fillColor=#f8cecc;strokeColor=default;strokeWidth=2;" vertex="1" parent="1">
          <mxGeometry x="730" y="370" width="20" height="20" as="geometry" />
        </mxCell>
        <mxCell id="Mc97eo4bKEqJ45BOUB6S-17" value="" style="rounded=0;whiteSpace=wrap;html=1;fillColor=#f8cecc;strokeColor=default;strokeWidth=2;" vertex="1" parent="1">
          <mxGeometry x="750" y="370" width="20" height="20" as="geometry" />
        </mxCell>
        <mxCell id="Mc97eo4bKEqJ45BOUB6S-18" value="$$\mathbf{q}_4$$" style="text;html=1;align=center;verticalAlign=middle;whiteSpace=wrap;rounded=0;" vertex="1" parent="1">
          <mxGeometry x="660" y="365" width="30" height="30" as="geometry" />
        </mxCell>
        <mxCell id="Mc97eo4bKEqJ45BOUB6S-19" value="$$\mathbf{k}_1$$" style="text;html=1;align=center;verticalAlign=middle;whiteSpace=wrap;rounded=0;" vertex="1" parent="1">
          <mxGeometry x="685" y="283" width="30" height="28" as="geometry" />
        </mxCell>
        <mxCell id="Mc97eo4bKEqJ45BOUB6S-20" value="$$\mathbf{k}_2$$" style="text;html=1;align=center;verticalAlign=middle;whiteSpace=wrap;rounded=0;" vertex="1" parent="1">
          <mxGeometry x="705" y="282" width="30" height="28" as="geometry" />
        </mxCell>
        <mxCell id="Mc97eo4bKEqJ45BOUB6S-21" value="$$\mathbf{k}_3$$" style="text;html=1;align=center;verticalAlign=middle;whiteSpace=wrap;rounded=0;" vertex="1" parent="1">
          <mxGeometry x="725" y="282" width="30" height="28" as="geometry" />
        </mxCell>
        <mxCell id="Mc97eo4bKEqJ45BOUB6S-22" value="$$\mathbf{k}_4$$" style="text;html=1;align=center;verticalAlign=middle;whiteSpace=wrap;rounded=0;" vertex="1" parent="1">
          <mxGeometry x="745" y="283" width="30" height="28" as="geometry" />
        </mxCell>
        <mxCell id="Mc97eo4bKEqJ45BOUB6S-23" value="" style="rounded=0;whiteSpace=wrap;html=1;strokeWidth=2;fillColor=#f5f5f5;fontColor=#333333;strokeColor=default;" vertex="1" parent="1">
          <mxGeometry x="790" y="310" width="80" height="20" as="geometry" />
        </mxCell>
        <mxCell id="Mc97eo4bKEqJ45BOUB6S-24" value="" style="rounded=0;whiteSpace=wrap;html=1;strokeWidth=2;fillColor=#f5f5f5;fontColor=#333333;strokeColor=default;" vertex="1" parent="1">
          <mxGeometry x="790" y="330" width="80" height="20" as="geometry" />
        </mxCell>
        <mxCell id="Mc97eo4bKEqJ45BOUB6S-25" value="" style="rounded=0;whiteSpace=wrap;html=1;strokeWidth=2;fillColor=#f5f5f5;fontColor=#333333;strokeColor=default;" vertex="1" parent="1">
          <mxGeometry x="790" y="350" width="80" height="20" as="geometry" />
        </mxCell>
        <mxCell id="Mc97eo4bKEqJ45BOUB6S-26" value="" style="rounded=0;whiteSpace=wrap;html=1;strokeWidth=2;fillColor=#f8cecc;strokeColor=default;" vertex="1" parent="1">
          <mxGeometry x="790" y="370" width="80" height="20" as="geometry" />
        </mxCell>
        <mxCell id="Mc97eo4bKEqJ45BOUB6S-27" value="$$\mathbf{v}_1$$" style="text;html=1;align=center;verticalAlign=middle;whiteSpace=wrap;rounded=0;" vertex="1" parent="1">
          <mxGeometry x="870" y="306" width="30" height="28" as="geometry" />
        </mxCell>
        <mxCell id="Mc97eo4bKEqJ45BOUB6S-28" value="$$\mathbf{v}_2$$" style="text;html=1;align=center;verticalAlign=middle;whiteSpace=wrap;rounded=0;" vertex="1" parent="1">
          <mxGeometry x="870" y="326" width="30" height="28" as="geometry" />
        </mxCell>
        <mxCell id="Mc97eo4bKEqJ45BOUB6S-29" value="$$\mathbf{v}_3$$" style="text;html=1;align=center;verticalAlign=middle;whiteSpace=wrap;rounded=0;" vertex="1" parent="1">
          <mxGeometry x="870" y="346" width="30" height="28" as="geometry" />
        </mxCell>
        <mxCell id="Mc97eo4bKEqJ45BOUB6S-30" value="$$\mathbf{v}_4$$" style="text;html=1;align=center;verticalAlign=middle;whiteSpace=wrap;rounded=0;" vertex="1" parent="1">
          <mxGeometry x="870" y="365" width="30" height="28" as="geometry" />
        </mxCell>
        <mxCell id="Mc97eo4bKEqJ45BOUB6S-31" value="" style="labelPosition=right;align=left;strokeWidth=2;shape=mxgraph.mockup.markup.curlyBrace;html=1;shadow=0;dashed=0;strokeColor=default;direction=north;rotation=-180;" vertex="1" parent="1">
          <mxGeometry x="900" y="307.5" width="20" height="65" as="geometry" />
        </mxCell>
        <mxCell id="Mc97eo4bKEqJ45BOUB6S-34" value="KV Cache" style="text;html=1;align=center;verticalAlign=middle;whiteSpace=wrap;rounded=0;" vertex="1" parent="1">
          <mxGeometry x="920" y="325" width="60" height="30" as="geometry" />
        </mxCell>
      </root>
    </mxGraphModel>
  </diagram>
</mxfile>
